<svg xmlns="http://www.w3.org/2000/svg" xmlns:xlink="http://www.w3.org/1999/xlink" version="1.1" x="0px" y="0px" viewBox="0 0 50 59.625" enable-background="new 0 0 50 47.7" xml:space="preserve"><g><path d="M45.3,17.4c-0.1-0.1-1.2-0.5-2.9-1c-0.1,0-0.2-0.1-0.2-0.2C39.3,9.8,32.8,5.3,25.3,5.3c-7.5,0-13.9,4.5-16.8,10.9   c0,0.1-0.1,0.1-0.2,0.2c-1.7,0.6-2.8,1-2.9,1l-0.6,0.3v12.1L5.4,30c0.1,0,1.1,0.4,2.7,0.9c0.1,0,0.2,0.1,0.2,0.2   c2.8,6.6,9.4,11.2,17,11.2c7.6,0,14.1-4.6,16.9-11.1c0-0.1,0.1-0.1,0.2-0.2c1.7-0.6,2.7-1,2.8-1l0.6-0.3V17.6L45.3,17.4z M25.3,7.3   c5.8,0,10.9,3,13.8,7.5c0.2,0.3-0.1,0.6-0.4,0.5c-3.8-1-8.8-2-13.6-2c-4.7,0-9.5,1-13.2,2c-0.3,0.1-0.5-0.2-0.4-0.5   C14.5,10.3,19.6,7.3,25.3,7.3z M25.3,40.3c-5.9,0-11.1-3.1-14-7.9c-0.2-0.3,0.1-0.6,0.4-0.5c3.9,1,8.9,2.1,13.6,2.1   c5,0,9.9-1,13.6-2c0.3-0.1,0.5,0.2,0.4,0.5C36.4,37.2,31.2,40.3,25.3,40.3z M43.9,28.2c0,0.1-0.1,0.3-0.2,0.3   c-2.5,0.9-10.4,3.6-18.4,3.6c-7.1,0-15.6-2.7-18.3-3.6c-0.1,0-0.2-0.2-0.2-0.3v-8.9c0-0.1,0.1-0.3,0.2-0.3   c2.6-0.9,10.6-3.6,18.2-3.6c7.5,0,15.9,2.7,18.5,3.6c0.1,0,0.2,0.2,0.2,0.3V28.2z"/><path d="M23.5,27.3l6.4-3.7c0.3-0.2,0.3-0.7,0-0.8L23.5,19c-0.3-0.2-0.7,0-0.7,0.4v7.4C22.8,27.3,23.2,27.5,23.5,27.3z"/></g></svg>